<svg xmlns="http://www.w3.org/2000/svg" width="400" height="400" viewBox="0 0 400 400">
  <defs>
    <linearGradient id="bg" x1="0" y1="0" x2="0" y2="1">
      <stop offset="0%" stop-color="#e3f2fd"/>
      <stop offset="100%" stop-color="#bbdefb"/>
    </linearGradient>
    <linearGradient id="shoe1" x1="0" y1="0" x2="1" y2="1">
      <stop offset="0%" stop-color="#1e88e5"/>
      <stop offset="100%" stop-color="#1565c0"/>
    </linearGradient>
    <linearGradient id="shoe2" x1="0" y1="0" x2="0" y2="1">
      <stop offset="0%" stop-color="#1976d2"/>
      <stop offset="100%" stop-color="#0d47a1"/>
    </linearGradient>
    <filter id="sh">
      <feDropShadow dx="0" dy="4" stdDeviation="6" flood-color="#0d47a1" flood-opacity="0.2"/>
    </filter>
  </defs>

  <rect width="400" height="400" rx="16" fill="url(#bg)"/>

  <g transform="translate(100, 115) scale(0.39)" filter="url(#sh)">
    <!-- Sole and heel strap -->
    <path d="M264.144,416.889L14.642,205.12L0,222.38l249.532,211.798l0.034,0.03
      c28.365,23.868,64.366,37.003,101.443,37.01h159.922v-22.638H351.01
      C319.292,448.581,288.402,437.322,264.144,416.889z"
      fill="#0d47a1"/>

    <!-- Heel detail -->
    <path d="M203.394,336.186l56.013,47.136c-2.07-10.412-6.623-21.543-15.617-31.812
      c-6.968-7.966-21.928-24.401-39.924-44.533
      C203.397,316.698,203.21,326.524,203.394,336.186z"
      fill="#1565c0"/>

    <!-- Ankle detail -->
    <path d="M141.098,205.698c-9.717-8.664-18.354-16.682-25.496-23.824
      c6.923,10.704,13.333,20.425,22.882,32.494
      C139.323,211.511,140.198,208.624,141.098,205.698z"
      fill="#1976d2"/>

    <!-- Mid panel -->
    <path d="M194.91,251.657c-14.556-12.107-28.463-23.816-41.054-34.745
      c-0.893,4.133-1.785,8.371-2.64,12.729
      c9.852,11.312,22.541,24.874,39.826,42.291
      C192.187,265.361,193.466,258.587,194.91,251.657z"
      fill="#1976d2"/>

    <!-- Side panel -->
    <path d="M330.506,424.022c-0.372-18.197-4.4-63.248-33.957-88.205
      c-27.911-23.568-59.254-49.094-88.812-73.532
      c-0.912,7.576-1.751,15.587-2.46,23.838
      c1.938,1.92,3.889,3.841,5.929,5.836
      c40.044,39.253,71.222,70.09,74.808,113.228
      C299.34,414.654,314.525,421.052,330.506,424.022z"
      fill="url(#shoe2)"/>

    <!-- Lower mid section -->
    <path d="M143.198,285.524l41.136,34.617
      c0.946-9.032,2.205-19.405,3.886-30.746
      c-12.943-14.635-26.625-30.327-39.594-45.689
      C146.277,257.298,144.327,271.497,143.198,285.524z"
      fill="#1976d2"/>

    <!-- Main body -->
    <path d="M134.872,227.196c-20.23-24.656-37.018-46.956-43.656-60.473l5.58-6.683
      c-0.011-0.008-0.022-0.023-0.022-0.023l6.676-8.266c0,0,17.463,16.742,42.478,39.05
      c4.013-11.837,8.547-23.936,13.682-35.975l9.5,3.586c0,0-5.555,17.357-11.623,42.605
      c12.654,11.087,26.628,23.028,40.951,34.7c2.686-11.394,5.788-23.043,9.392-34.707
      l9.35,2.483c0,0-3.616,16.922-7.156,41.533c15.355,12.174,30.777,23.681,45.052,33.132
      c61.016,40.431,102.772,82.721,107.136,147.785c20.744,0,66.91,0,109.11,0
      c56.584,0,48.096-56.58,11.315-65.064c-24.809-5.731-56.685-18.895-56.685-18.895
      c-12.576-4.193-22.867-13.39-28.44-25.421c0,0-1.373-2.902-3.679-7.824l-46.202,13.975
      c-5.049,1.522-10.378-1.335-11.904-6.376c-1.527-5.048,1.327-10.382,6.375-11.904
      l43.526-13.165c-3.744-7.966-8.087-17.237-12.662-27.018l-43.172,13.058
      c-5.04,1.523-10.378-1.327-11.904-6.375c-1.526-5.049,1.331-10.374,6.376-11.904
      l40.531-12.257c-4.313-9.256-8.607-18.475-12.575-27.041l-40.262,12.174
      c-5.044,1.53-10.377-1.327-11.904-6.376c-1.522-5.04,1.328-10.373,6.372-11.896
      l37.715-11.409c-5.404-11.77-9.335-20.485-10.374-23.186
      c-4.546-11.806-14.511-44.533-37.254-26.328c-37.389,29.922-105.596,21.138-123.204-11.574
      c-13.202-24.52-5.66-50.924,0-71.672c4.519-16.585-18.869-42.441-35.844-19.81
      c-12.002,16-113.171,135.806-113.171,135.806l100.457,84.537
      C127.228,257.77,130.544,243.151,134.872,227.196z"
      fill="url(#shoe1)"/>

    <!-- Stripe accents on the lace bands (the horizontal bands in the original) -->
    <g opacity="0.35" fill="#bbdefb">
      <path d="M348.13,322.255l-46.202,13.975c-5.049,1.522-10.378-1.335-11.904-6.376
        c-1.527-5.048,1.327-10.382,6.375-11.904l43.526-13.165"/>
      <path d="M335.468,295.237l-43.172,13.058c-5.04,1.523-10.378-1.327-11.904-6.375
        c-1.526-5.049,1.331-10.374,6.376-11.904l40.531-12.257"/>
      <path d="M322.893,268.196l-40.262,12.174c-5.044,1.53-10.377-1.327-11.904-6.376
        c-1.522-5.04,1.328-10.373,6.372-11.896l37.715-11.409"/>
    </g>
  </g>
</svg>
